<?xml version="1.0" encoding="UTF-8" standalone="no"?>
<svg width="108px" height="157px" viewBox="0 0 108 157" version="1.1" xmlns="http://www.w3.org/2000/svg" xmlns:xlink="http://www.w3.org/1999/xlink" xmlns:sketch="http://www.bohemiancoding.com/sketch/ns">
    <!-- Generator: Sketch 3.5.2 (25235) - http://www.bohemiancoding.com/sketch -->
    <title>walkthrough copy 5</title>
    <desc>Created with Sketch.</desc>
    <defs>
        <rect id="path-1" x="0" y="0" width="108" height="157"></rect>
    </defs>
    <g id="Page-1" stroke="none" stroke-width="1" fill="none" fill-rule="evenodd" sketch:type="MSPage">
        <g id="Example-Weekly-Content" sketch:type="MSArtboardGroup" transform="translate(-1133.000000, -5080.000000)">
            <path d="M0,301 L1440,301 L1440,7288.41102 L1440,9073 L0,9073 L0,301 Z" id="Rectangle-8-Copy" fill="#F2F2F2" sketch:type="MSShapeGroup"></path>
            <rect id="Rectangle-9-Copy" fill="#FFFFFF" sketch:type="MSShapeGroup" x="122" y="3595" width="1197" height="1850"></rect>
            <rect id="Rectangle-202-Copy-6" stroke="#496E8E" stroke-width="2" sketch:type="MSShapeGroup" x="199" y="5080" width="1042" height="157"></rect>
            <g id="walkthrough-copy-5" sketch:type="MSLayerGroup" transform="translate(1133.000000, 5080.000000)">
                <mask id="mask-2" sketch:name="Mask" fill="white">
                    <use xlink:href="#path-1"></use>
                </mask>
                <use id="Mask" fill="#496E8E" sketch:type="MSShapeGroup" xlink:href="#path-1"></use>
            </g>
            <g id="Page-1-Copy-3" sketch:type="MSLayerGroup" transform="translate(1175.000000, 5130.000000)" stroke="#FFFFFF" stroke-width="7" stroke-linecap="round" stroke-linejoin="round">
                <path d="M15.092,14.724 L29.684,29.316 L15.092,14.724 L0.5,0.132 C0.5,0.132 7.033,6.665 15.092,14.724 L15.092,14.724 Z" id="Stroke-1" sketch:type="MSShapeGroup"></path>
                <path d="M15.092,43.908 L29.684,29.316 L15.092,43.908 L0.5,58.5 L15.092,43.908 L15.092,43.908 Z" id="Stroke-3" sketch:type="MSShapeGroup"></path>
            </g>
        </g>
    </g>
</svg>